HIERARCHY
ROOT Hip
{
	OFFSET	0.0000	0.0000	0.0000
	CHANNELS 6 Xposition Yposition Zposition Xrotation Yrotation Zrotation
	JOINT LowerSpine
	{
		OFFSET	0.0000	8.4380	-5.1862
		CHANNELS 3 Xrotation Yrotation Zrotation
		JOINT MiddleSpine
		{
			OFFSET	10.9776	0.0000	0.0000
			CHANNELS 3 Xrotation Yrotation Zrotation
			JOINT Chest
			{
				OFFSET	15.4684	0.0000	0.0000
				CHANNELS 3 Xrotation Yrotation Zrotation
				JOINT Neck
				{
					OFFSET	25.9469	-0.6053	0.0000
					CHANNELS 3 Xrotation Yrotation Zrotation
					JOINT Head
					{
						OFFSET	8.9816	0.0000	0.0000
						CHANNELS 3 Xrotation Yrotation Zrotation
						End Site
						{
							OFFSET	19.9592	0.0000	0.0000
						}
					}
				}
				JOINT RClavicle
				{
					OFFSET	23.9510	0.0000	3.1935
					CHANNELS 3 Xrotation Yrotation Zrotation
					JOINT RShoulder
					{
						OFFSET	-15.7678	-3.9918	0.9980
						CHANNELS 3 Xrotation Yrotation Zrotation
						JOINT RForearm
						{
							OFFSET	-31.6852	0.0000	0.1996
							CHANNELS 3 Xrotation Yrotation Zrotation
							JOINT RHand
							{
								OFFSET	-26.6954	0.0000	0.0000
								CHANNELS 3 Xrotation Yrotation Zrotation
								End Site
								{
									OFFSET	-15.9674	-0.9980	0.0000
								}
							}
						}
					}
				}
				JOINT LClavicle
				{
					OFFSET	23.9510	0.0000	-3.1935
					CHANNELS 3 Xrotation Yrotation Zrotation
					JOINT LShoulder
					{
						OFFSET	-15.7678	-3.9918	-0.9980
						CHANNELS 3 Xrotation Yrotation Zrotation
						JOINT LForearm
						{
							OFFSET	-31.6852	0.0000	-0.1996
							CHANNELS 3 Xrotation Yrotation Zrotation
							JOINT LHand
							{
								OFFSET	-26.6954	0.0000	0.0000
								CHANNELS 3 Xrotation Yrotation Zrotation
								End Site
								{
									OFFSET	-15.9674	-0.9980	0.0000
								}
							}
						}
					}
				}
			}
		}
	}
	JOINT RThigh
	{
		OFFSET	-8.9816	0.4531	0.0000
		CHANNELS 3 Xrotation Yrotation Zrotation
		JOINT RShin
		{
			OFFSET	43.6108	0.0000	-0.4990
			CHANNELS 3 Xrotation Yrotation Zrotation
			JOINT RFoot
			{
				OFFSET	0.0000	-45.2226	-0.4092
				CHANNELS 3 Xrotation Yrotation Zrotation
				JOINT RToe
				{
					OFFSET	0.0000	-3.9769	12.3308
					CHANNELS 3 Xrotation Yrotation Zrotation
					End Site
					{
						OFFSET	6.8477	0.0000	0.0000
					}
				}
			}
		}
	}
	JOINT LThigh
	{
		OFFSET	8.9816	0.4531	0.0000
		CHANNELS 3 Xrotation Yrotation Zrotation
		JOINT LShin
		{
			OFFSET	43.6108	0.0000	0.4990
			CHANNELS 3 Xrotation Yrotation Zrotation
			JOINT LFoot
			{
				OFFSET	0.0000	-45.2226	0.4092
				CHANNELS 3 Xrotation Yrotation Zrotation
				JOINT LToe
				{
					OFFSET	0.0000	-3.9769	-12.3308
					CHANNELS 3 Xrotation Yrotation Zrotation
					End Site
					{
						OFFSET	6.8477	0.0000	0.0000
					}
				}
			}
		}
	}
}
MOTION
Frames:	6
Frame Time: 0.0333333000
	0.0000	94.1711	0.0000	0.000000	0.000000	0.000000	-89.999990	-90.000000	0.000000	0.000000	0.000000	0.000000	0.000000	0.000000	0.000000	0.000000	0.000000	0.000000	0.000000	0.000000	0.000000	89.999990	0.000003	-89.999990	0.129889	-2.857029	4.156837	0.255388	4.965908	-5.884634	0.000000	0.000000	0.000000	-89.999990	-0.000003	-89.999990	-0.129889	2.857029	4.156894	-0.255388	-4.965908	-5.884634	0.000000	0.000000	0.000000	-89.999990	90.000000	0.000000	89.999990	-0.000003	89.999990	0.000000	0.000000	0.000000	180.000000	90.000000	0.000000	-89.999990	90.000000	0.000000	-90.000000	-0.000003	89.999990	0.000000	0.000000	0.000000	180.000000	-90.000000	0.000000
	0.6206	97.6460	0.1840	-4.405818	0.419200	0.979532	-89.999990	-90.000000	0.000000	0.129694	0.307861	-0.328544	0.438993	1.023214	-1.097846	0.000000	0.000000	0.000000	0.000000	0.000000	0.000000	90.096690	0.721661	-99.791940	-17.626390	7.508403	3.633341	0.606287	8.336273	-5.925293	0.000000	0.000000	0.000000	-90.001170	-0.023457	-90.315410	-16.740220	12.948560	1.685636	-1.045307	-12.469840	-6.004620	0.000000	0.000000	0.000000	33.585690	85.344610	-114.456800	89.968460	3.514623	89.997370	-0.118719	-0.111966	-0.037239	180.000000	90.000000	0.000000	75.665300	86.744710	-157.275300	-89.937580	-6.956187	89.996670	0.413921	-0.087753	0.028491	180.000200	-90.000000	0.000000
	1.1789	97.6043	0.3232	-4.663925	1.317932	1.471178	-89.999990	-90.000000	0.000000	0.140324	0.355919	-0.401778	0.477350	1.182438	-1.342753	0.000000	0.000000	0.000000	0.000000	0.000000	0.000000	90.101330	0.742371	-100.077100	-25.545310	5.883409	5.483667	0.767957	9.871082	-5.950876	0.000000	0.000000	0.000000	-90.000060	-0.001351	-90.018120	-18.251440	10.819790	1.546535	-0.720626	-9.423140	-5.942944	0.000000	0.000000	0.000000	40.281200	85.187160	-120.764400	89.965460	3.849989	89.997210	-0.190298	-0.144378	-0.047648	180.000000	90.000000	0.000000	97.521240	86.263120	-178.636000	-89.946620	-5.950757	89.996680	0.354283	-0.205363	0.066885	180.000000	-90.000000	0.000000
	1.6248	97.5783	0.3664	-4.615529	2.440381	1.817957	-89.999990	-90.000000	0.000000	0.166948	0.382008	-0.467838	0.568572	1.267890	-1.563972	0.000000	0.000000	0.000000	0.000000	0.000000	0.000000	90.104120	0.754534	-100.244700	-31.041410	3.627281	5.991895	0.894134	11.059140	-5.973794	0.000000	0.000000	0.000000	-89.999450	0.011682	-89.842920	-18.381610	9.444321	1.142189	-0.641390	-8.670634	-5.930483	0.000000	0.000000	0.000000	44.478340	85.265440	-124.897300	89.961480	4.294203	89.997040	-0.142620	-0.036559	-0.010832	179.999800	90.000000	0.000000	100.630300	85.810330	178.178400	-89.945580	-6.067155	89.996670	0.206699	-0.550227	0.178795	180.000100	-90.000000	0.000000
	1.9027	97.5375	0.3602	-4.590602	3.228181	2.030763	-89.999990	-90.000000	0.000000	0.207279	0.389704	-0.534823	0.705048	1.291282	-1.788451	0.000000	0.000000	0.000000	0.000000	0.000000	0.000000	90.105320	0.759779	-100.317000	-33.912990	1.793632	5.816551	1.037336	12.395820	-6.002904	0.000000	0.000000	0.000000	-89.999160	0.018068	-89.757060	-18.387260	8.482312	0.840233	-0.621825	-8.484354	-5.927565	0.000000	0.000000	0.000000	46.230600	85.278440	-126.675800	89.957930	4.691369	89.996910	-0.251045	-0.146293	-0.040624	179.999500	90.000000	0.000000	100.595700	85.556110	178.114200	-89.942210	-6.442033	89.996660	0.079941	-0.935853	0.305117	180.000000	-90.000000	0.000000
	2.0207	97.5014	0.3266	-4.626182	3.514631	2.127252	-89.999990	-90.000000	0.000000	0.250814	0.383797	-0.606311	0.851813	1.268768	-2.027806	0.000000	0.000000	0.000000	0.000000	0.000000	0.000000	90.105090	0.758750	-100.302800	-34.841300	0.812786	5.479577	1.155948	13.492700	-6.029474	0.000000	0.000000	0.000000	-89.998960	0.022759	-89.693950	-18.403170	7.899220	0.724787	-0.598097	-8.258183	-5.924110	0.000000	0.000000	0.000000	46.620360	85.222150	-127.181800	89.954440	5.079311	89.996810	-0.612658	-0.379031	-0.114856	179.999300	90.000000	0.000000	100.887900	85.423410	177.746600	-89.939900	-6.699196	89.996670	0.130674	-1.037092	0.342556	180.000100	-90.000000	0.000000
